# xmcd
#
# Track frame offsets: 
#        150
#        12890
#        25310
#        38127
#        50640
#        63727
#        76247
#        93842
#        115337
#        147547
#        165337
#        193940
#        220485
#        245280
#        263375
#        283452
#
# Disc length: 3853 seconds
#
# Revision: 0
# Processed by: cddbd v1.5.1PL0 Copyright (c) Steve Scherf et al.
# Submitted via: ExactAudioCopy v0.95a4
#
DISCID=e70f0b10
DTITLE=Various Artist - Rhythm and Soul n°5
DYEAR=2000
DGENRE=Soul
TTITLE0=Booker T. and The MG's - Green Onions
TTITLE1=James Brown - I Got You (I Feel Good)
TTITLE2=The Jackson 5 - ABC
TTITLE3=Mary Wells - My Guy
TTITLE4=The Temptations - My Girl
TTITLE5=Stevie Wonder - For Once In My Life
TTITLE6=Dionne Warwick - Heartbreaker
TTITLE7=Barry White - Just The Way You Are
TTITLE8=Maze - Joy And Pain
TTITLE9=Lipps Inc. - Funkytown
TTITLE10=Imagination - Just An Illusion
TTITLE11=BB and Q Band - On The Beat
TTITLE12=Gap Band - Burn Rubber On Me (Why You Wanna Hurt Me)
TTITLE13=Cameo - Word Up
TTITLE14=Heavy D and The Boyz - Now That We Found Love
TTITLE15=-garbage--
EXTD=
EXTT0=
EXTT1=
EXTT2=
EXTT3=
EXTT4=
EXTT5=
EXTT6=
EXTT7=
EXTT8=
EXTT9=
EXTT10=
EXTT11=
EXTT12=
EXTT13=
EXTT14=
EXTT15=
PLAYORDER=
